<?xml version="1.0" encoding="UTF-8" standalone="no"?><svg xmlns="http://www.w3.org/2000/svg" xmlns:xlink="http://www.w3.org/1999/xlink" contentScriptType="application/ecmascript" contentStyleType="text/css" height="1204px" preserveAspectRatio="none" style="width:1325px;height:1204px;" version="1.1" viewBox="0 0 1325 1204" width="1325px" zoomAndPan="magnify"><defs/><g><!--MD5=[f305145558e2434c7fe8779355d73af2]
cluster Newspack_Ads--><polygon fill="#FFFFFF" points="244,640,368,640,375,662.2969,1303,662.2969,1303,1192,244,1192,244,640" style="stroke: #000000; stroke-width: 1.5;"/><line style="stroke: #000000; stroke-width: 1.5;" x1="244" x2="375" y1="662.2969" y2="662.2969"/><text fill="#000000" font-family="sans-serif" font-size="14" font-weight="bold" lengthAdjust="spacingAndGlyphs" textLength="118" x="248" y="654.9951">Newspack_Ads</text><!--MD5=[2a9d6116a35bbc8c20c5098c240df9ff]
cluster Newspack_Ads\\Integrations--><polygon fill="#FFFFFF" points="22,466,246,466,253,488.2969,418.5,488.2969,418.5,616,22,616,22,466" style="stroke: #000000; stroke-width: 1.5;"/><line style="stroke: #000000; stroke-width: 1.5;" x1="22" x2="253" y1="488.2969" y2="488.2969"/><text fill="#000000" font-family="sans-serif" font-size="14" font-weight="bold" lengthAdjust="spacingAndGlyphs" textLength="218" x="26" y="480.9951">Newspack_Ads\Integrations</text><!--MD5=[8f366580d98423460095187ff825cc14]
cluster Newspack_Ads\\Providers\\GAM--><polygon fill="#FFFFFF" points="50.5,24,296.5,24,303.5,46.2969,459.5,46.2969,459.5,442,50.5,442,50.5,24" style="stroke: #000000; stroke-width: 1.5;"/><line style="stroke: #000000; stroke-width: 1.5;" x1="50.5" x2="303.5" y1="46.2969" y2="46.2969"/><text fill="#000000" font-family="sans-serif" font-size="14" font-weight="bold" lengthAdjust="spacingAndGlyphs" textLength="240" x="54.5" y="38.9951">Newspack_Ads\Providers\GAM</text><!--MD5=[9736be3a49d3bdc7aebc0a38d4cf7cc2]
class Newspack_Ads\\Bidding--><rect fill="#FEFECE" height="32" id="Newspack_Ads\\Bidding" style="stroke: #A80036; stroke-width: 1.5;" width="78" x="330" y="943"/><ellipse cx="345" cy="959" fill="#ADD1B2" rx="11" ry="11" style="stroke: #A80036; stroke-width: 1.0;"/><path d="M347.9688,964.6406 Q347.3906,964.9375 346.75,965.0781 Q346.1094,965.2344 345.4063,965.2344 Q342.9063,965.2344 341.5781,963.5938 Q340.2656,961.9375 340.2656,958.8125 Q340.2656,955.6875 341.5781,954.0313 Q342.9063,952.375 345.4063,952.375 Q346.1094,952.375 346.75,952.5313 Q347.4063,952.6875 347.9688,952.9844 L347.9688,955.7031 Q347.3438,955.125 346.75,954.8594 Q346.1563,954.5781 345.5313,954.5781 Q344.1875,954.5781 343.5,955.6563 Q342.8125,956.7188 342.8125,958.8125 Q342.8125,960.9063 343.5,961.9844 Q344.1875,963.0469 345.5313,963.0469 Q346.1563,963.0469 346.75,962.7813 Q347.3438,962.5 347.9688,961.9219 L347.9688,964.6406 Z "/><text fill="#000000" font-family="sans-serif" font-size="12" lengthAdjust="spacingAndGlyphs" textLength="46" x="359" y="963.1543">Bidding</text><!--MD5=[e28084b5cee9adb1842907bce57f65ee]
class Newspack_Ads\\Blocks--><rect fill="#FEFECE" height="32" id="Newspack_Ads\\Blocks" style="stroke: #A80036; stroke-width: 1.5;" width="72" x="333" y="876"/><ellipse cx="348" cy="892" fill="#ADD1B2" rx="11" ry="11" style="stroke: #A80036; stroke-width: 1.0;"/><path d="M350.9688,897.6406 Q350.3906,897.9375 349.75,898.0781 Q349.1094,898.2344 348.4063,898.2344 Q345.9063,898.2344 344.5781,896.5938 Q343.2656,894.9375 343.2656,891.8125 Q343.2656,888.6875 344.5781,887.0313 Q345.9063,885.375 348.4063,885.375 Q349.1094,885.375 349.75,885.5313 Q350.4063,885.6875 350.9688,885.9844 L350.9688,888.7031 Q350.3438,888.125 349.75,887.8594 Q349.1563,887.5781 348.5313,887.5781 Q347.1875,887.5781 346.5,888.6563 Q345.8125,889.7188 345.8125,891.8125 Q345.8125,893.9063 346.5,894.9844 Q347.1875,896.0469 348.5313,896.0469 Q349.1563,896.0469 349.75,895.7813 Q350.3438,895.5 350.9688,894.9219 L350.9688,897.6406 Z "/><text fill="#000000" font-family="sans-serif" font-size="12" lengthAdjust="spacingAndGlyphs" textLength="40" x="362" y="896.1543">Blocks</text><!--MD5=[c8eb3dbc3f4cdae71853d5a60a68bcb7]
class Newspack_Ads\\Core--><rect fill="#FEFECE" height="32" id="Newspack_Ads\\Core" style="stroke: #A80036; stroke-width: 1.5;" width="61" x="338.5" y="809"/><ellipse cx="353.5" cy="825" fill="#ADD1B2" rx="11" ry="11" style="stroke: #A80036; stroke-width: 1.0;"/><path d="M356.4688,830.6406 Q355.8906,830.9375 355.25,831.0781 Q354.6094,831.2344 353.9063,831.2344 Q351.4063,831.2344 350.0781,829.5938 Q348.7656,827.9375 348.7656,824.8125 Q348.7656,821.6875 350.0781,820.0313 Q351.4063,818.375 353.9063,818.375 Q354.6094,818.375 355.25,818.5313 Q355.9063,818.6875 356.4688,818.9844 L356.4688,821.7031 Q355.8438,821.125 355.25,820.8594 Q354.6563,820.5781 354.0313,820.5781 Q352.6875,820.5781 352,821.6563 Q351.3125,822.7188 351.3125,824.8125 Q351.3125,826.9063 352,827.9844 Q352.6875,829.0469 354.0313,829.0469 Q354.6563,829.0469 355.25,828.7813 Q355.8438,828.5 356.4688,827.9219 L356.4688,830.6406 Z "/><text fill="#000000" font-family="sans-serif" font-size="12" lengthAdjust="spacingAndGlyphs" textLength="29" x="367.5" y="829.1543">Core</text><!--MD5=[f5f5df5118c5fb10695faacaa8f49413]
class Newspack_Ads\\Custom_Label--><rect fill="#FEFECE" height="32" id="Newspack_Ads\\Custom_Label" style="stroke: #A80036; stroke-width: 1.5;" width="118" x="310" y="742"/><ellipse cx="325" cy="758" fill="#ADD1B2" rx="11" ry="11" style="stroke: #A80036; stroke-width: 1.0;"/><path d="M327.9688,763.6406 Q327.3906,763.9375 326.75,764.0781 Q326.1094,764.2344 325.4063,764.2344 Q322.9063,764.2344 321.5781,762.5938 Q320.2656,760.9375 320.2656,757.8125 Q320.2656,754.6875 321.5781,753.0313 Q322.9063,751.375 325.4063,751.375 Q326.1094,751.375 326.75,751.5313 Q327.4063,751.6875 327.9688,751.9844 L327.9688,754.7031 Q327.3438,754.125 326.75,753.8594 Q326.1563,753.5781 325.5313,753.5781 Q324.1875,753.5781 323.5,754.6563 Q322.8125,755.7188 322.8125,757.8125 Q322.8125,759.9063 323.5,760.9844 Q324.1875,762.0469 325.5313,762.0469 Q326.1563,762.0469 326.75,761.7813 Q327.3438,761.5 327.9688,760.9219 L327.9688,763.6406 Z "/><text fill="#000000" font-family="sans-serif" font-size="12" lengthAdjust="spacingAndGlyphs" textLength="86" x="339" y="762.1543">Custom_Label</text><!--MD5=[8170f5f8aec1da9c3a6d14e961507fee]
class Newspack_Ads\\Fixed_Height--><rect fill="#FEFECE" height="32" id="Newspack_Ads\\Fixed_Height" style="stroke: #A80036; stroke-width: 1.5;" width="111" x="313.5" y="675"/><ellipse cx="328.5" cy="691" fill="#ADD1B2" rx="11" ry="11" style="stroke: #A80036; stroke-width: 1.0;"/><path d="M331.4688,696.6406 Q330.8906,696.9375 330.25,697.0781 Q329.6094,697.2344 328.9063,697.2344 Q326.4063,697.2344 325.0781,695.5938 Q323.7656,693.9375 323.7656,690.8125 Q323.7656,687.6875 325.0781,686.0313 Q326.4063,684.375 328.9063,684.375 Q329.6094,684.375 330.25,684.5313 Q330.9063,684.6875 331.4688,684.9844 L331.4688,687.7031 Q330.8438,687.125 330.25,686.8594 Q329.6563,686.5781 329.0313,686.5781 Q327.6875,686.5781 327,687.6563 Q326.3125,688.7188 326.3125,690.8125 Q326.3125,692.9063 327,693.9844 Q327.6875,695.0469 329.0313,695.0469 Q329.6563,695.0469 330.25,694.7813 Q330.8438,694.5 331.4688,693.9219 L331.4688,696.6406 Z "/><text fill="#000000" font-family="sans-serif" font-size="12" lengthAdjust="spacingAndGlyphs" textLength="79" x="342.5" y="695.1543">Fixed_Height</text><!--MD5=[c0141553e4ecfce58801b47f4244d2b4]
class Newspack_Ads\\Placements--><rect fill="#FEFECE" height="32" id="Newspack_Ads\\Placements" style="stroke: #A80036; stroke-width: 1.5;" width="105" x="565" y="943"/><ellipse cx="580" cy="959" fill="#ADD1B2" rx="11" ry="11" style="stroke: #A80036; stroke-width: 1.0;"/><path d="M582.9688,964.6406 Q582.3906,964.9375 581.75,965.0781 Q581.1094,965.2344 580.4063,965.2344 Q577.9063,965.2344 576.5781,963.5938 Q575.2656,961.9375 575.2656,958.8125 Q575.2656,955.6875 576.5781,954.0313 Q577.9063,952.375 580.4063,952.375 Q581.1094,952.375 581.75,952.5313 Q582.4063,952.6875 582.9688,952.9844 L582.9688,955.7031 Q582.3438,955.125 581.75,954.8594 Q581.1563,954.5781 580.5313,954.5781 Q579.1875,954.5781 578.5,955.6563 Q577.8125,956.7188 577.8125,958.8125 Q577.8125,960.9063 578.5,961.9844 Q579.1875,963.0469 580.5313,963.0469 Q581.1563,963.0469 581.75,962.7813 Q582.3438,962.5 582.9688,961.9219 L582.9688,964.6406 Z "/><text fill="#000000" font-family="sans-serif" font-size="12" lengthAdjust="spacingAndGlyphs" textLength="73" x="594" y="963.1543">Placements</text><!--MD5=[8762d3250807b49cd3f6fc60c31764c7]
class Newspack_Ads\\Providers--><rect fill="#FEFECE" height="32" id="Newspack_Ads\\Providers" style="stroke: #A80036; stroke-width: 1.5;" width="90" x="572.5" y="876"/><ellipse cx="587.5" cy="892" fill="#ADD1B2" rx="11" ry="11" style="stroke: #A80036; stroke-width: 1.0;"/><path d="M590.4688,897.6406 Q589.8906,897.9375 589.25,898.0781 Q588.6094,898.2344 587.9063,898.2344 Q585.4063,898.2344 584.0781,896.5938 Q582.7656,894.9375 582.7656,891.8125 Q582.7656,888.6875 584.0781,887.0313 Q585.4063,885.375 587.9063,885.375 Q588.6094,885.375 589.25,885.5313 Q589.9063,885.6875 590.4688,885.9844 L590.4688,888.7031 Q589.8438,888.125 589.25,887.8594 Q588.6563,887.5781 588.0313,887.5781 Q586.6875,887.5781 586,888.6563 Q585.3125,889.7188 585.3125,891.8125 Q585.3125,893.9063 586,894.9844 Q586.6875,896.0469 588.0313,896.0469 Q588.6563,896.0469 589.25,895.7813 Q589.8438,895.5 590.4688,894.9219 L590.4688,897.6406 Z "/><text fill="#000000" font-family="sans-serif" font-size="12" lengthAdjust="spacingAndGlyphs" textLength="58" x="601.5" y="896.1543">Providers</text><!--MD5=[65e1b2ccb66a207cd2bd3b4cee4ebcb6]
class Newspack_Ads\\Settings--><rect fill="#FEFECE" height="32" id="Newspack_Ads\\Settings" style="stroke: #A80036; stroke-width: 1.5;" width="84" x="575.5" y="809"/><ellipse cx="590.5" cy="825" fill="#ADD1B2" rx="11" ry="11" style="stroke: #A80036; stroke-width: 1.0;"/><path d="M593.4688,830.6406 Q592.8906,830.9375 592.25,831.0781 Q591.6094,831.2344 590.9063,831.2344 Q588.4063,831.2344 587.0781,829.5938 Q585.7656,827.9375 585.7656,824.8125 Q585.7656,821.6875 587.0781,820.0313 Q588.4063,818.375 590.9063,818.375 Q591.6094,818.375 592.25,818.5313 Q592.9063,818.6875 593.4688,818.9844 L593.4688,821.7031 Q592.8438,821.125 592.25,820.8594 Q591.6563,820.5781 591.0313,820.5781 Q589.6875,820.5781 589,821.6563 Q588.3125,822.7188 588.3125,824.8125 Q588.3125,826.9063 589,827.9844 Q589.6875,829.0469 591.0313,829.0469 Q591.6563,829.0469 592.25,828.7813 Q592.8438,828.5 593.4688,827.9219 L593.4688,830.6406 Z "/><text fill="#000000" font-family="sans-serif" font-size="12" lengthAdjust="spacingAndGlyphs" textLength="52" x="604.5" y="829.1543">Settings</text><!--MD5=[270895c065c058c99549aaa3953da8d2]
class Newspack_Ads\\Sidebar_Placements--><rect fill="#FEFECE" height="32" id="Newspack_Ads\\Sidebar_Placements" style="stroke: #A80036; stroke-width: 1.5;" width="159" x="538" y="742"/><ellipse cx="553" cy="758" fill="#ADD1B2" rx="11" ry="11" style="stroke: #A80036; stroke-width: 1.0;"/><path d="M555.9688,763.6406 Q555.3906,763.9375 554.75,764.0781 Q554.1094,764.2344 553.4063,764.2344 Q550.9063,764.2344 549.5781,762.5938 Q548.2656,760.9375 548.2656,757.8125 Q548.2656,754.6875 549.5781,753.0313 Q550.9063,751.375 553.4063,751.375 Q554.1094,751.375 554.75,751.5313 Q555.4063,751.6875 555.9688,751.9844 L555.9688,754.7031 Q555.3438,754.125 554.75,753.8594 Q554.1563,753.5781 553.5313,753.5781 Q552.1875,753.5781 551.5,754.6563 Q550.8125,755.7188 550.8125,757.8125 Q550.8125,759.9063 551.5,760.9844 Q552.1875,762.0469 553.5313,762.0469 Q554.1563,762.0469 554.75,761.7813 Q555.3438,761.5 555.9688,760.9219 L555.9688,763.6406 Z "/><text fill="#000000" font-family="sans-serif" font-size="12" lengthAdjust="spacingAndGlyphs" textLength="127" x="567" y="762.1543">Sidebar_Placements</text><!--MD5=[3937cea71db68bdf66d9243b52b92af5]
class Newspack_Ads\\Suppression--><rect fill="#FEFECE" height="32" id="Newspack_Ads\\Suppression" style="stroke: #A80036; stroke-width: 1.5;" width="110" x="562.5" y="675"/><ellipse cx="577.5" cy="691" fill="#ADD1B2" rx="11" ry="11" style="stroke: #A80036; stroke-width: 1.0;"/><path d="M580.4688,696.6406 Q579.8906,696.9375 579.25,697.0781 Q578.6094,697.2344 577.9063,697.2344 Q575.4063,697.2344 574.0781,695.5938 Q572.7656,693.9375 572.7656,690.8125 Q572.7656,687.6875 574.0781,686.0313 Q575.4063,684.375 577.9063,684.375 Q578.6094,684.375 579.25,684.5313 Q579.9063,684.6875 580.4688,684.9844 L580.4688,687.7031 Q579.8438,687.125 579.25,686.8594 Q578.6563,686.5781 578.0313,686.5781 Q576.6875,686.5781 576,687.6563 Q575.3125,688.7188 575.3125,690.8125 Q575.3125,692.9063 576,693.9844 Q576.6875,695.0469 578.0313,695.0469 Q578.6563,695.0469 579.25,694.7813 Q579.8438,694.5 580.4688,693.9219 L580.4688,696.6406 Z "/><text fill="#000000" font-family="sans-serif" font-size="12" lengthAdjust="spacingAndGlyphs" textLength="78" x="591.5" y="695.1543">Suppression</text><!--MD5=[82b9cdfb5743984e4a2f31bbe8e432db]
class Newspack_Ads\\Widget--><rect fill="#FEFECE" height="32" id="Newspack_Ads\\Widget" style="stroke: #A80036; stroke-width: 1.5;" width="75" x="331.5" y="1010"/><ellipse cx="346.5" cy="1026" fill="#ADD1B2" rx="11" ry="11" style="stroke: #A80036; stroke-width: 1.0;"/><path d="M349.4688,1031.6406 Q348.8906,1031.9375 348.25,1032.0781 Q347.6094,1032.2344 346.9063,1032.2344 Q344.4063,1032.2344 343.0781,1030.5938 Q341.7656,1028.9375 341.7656,1025.8125 Q341.7656,1022.6875 343.0781,1021.0313 Q344.4063,1019.375 346.9063,1019.375 Q347.6094,1019.375 348.25,1019.5313 Q348.9063,1019.6875 349.4688,1019.9844 L349.4688,1022.7031 Q348.8438,1022.125 348.25,1021.8594 Q347.6563,1021.5781 347.0313,1021.5781 Q345.6875,1021.5781 345,1022.6563 Q344.3125,1023.7188 344.3125,1025.8125 Q344.3125,1027.9063 345,1028.9844 Q345.6875,1030.0469 347.0313,1030.0469 Q347.6563,1030.0469 348.25,1029.7813 Q348.8438,1029.5 349.4688,1028.9219 L349.4688,1031.6406 Z "/><text fill="#000000" font-family="sans-serif" font-size="12" lengthAdjust="spacingAndGlyphs" textLength="43" x="360.5" y="1030.1543">Widget</text><!--MD5=[d1ead31560e090db846197c0af9f9088]
class Newspack_Ads\\Customizer--><rect fill="#FEFECE" height="32" id="Newspack_Ads\\Customizer" style="stroke: #A80036; stroke-width: 1.5;" width="100" x="820" y="943"/><ellipse cx="835" cy="959" fill="#ADD1B2" rx="11" ry="11" style="stroke: #A80036; stroke-width: 1.0;"/><path d="M837.9688,964.6406 Q837.3906,964.9375 836.75,965.0781 Q836.1094,965.2344 835.4063,965.2344 Q832.9063,965.2344 831.5781,963.5938 Q830.2656,961.9375 830.2656,958.8125 Q830.2656,955.6875 831.5781,954.0313 Q832.9063,952.375 835.4063,952.375 Q836.1094,952.375 836.75,952.5313 Q837.4063,952.6875 837.9688,952.9844 L837.9688,955.7031 Q837.3438,955.125 836.75,954.8594 Q836.1563,954.5781 835.5313,954.5781 Q834.1875,954.5781 833.5,955.6563 Q832.8125,956.7188 832.8125,958.8125 Q832.8125,960.9063 833.5,961.9844 Q834.1875,963.0469 835.5313,963.0469 Q836.1563,963.0469 836.75,962.7813 Q837.3438,962.5 837.9688,961.9219 L837.9688,964.6406 Z "/><text fill="#000000" font-family="sans-serif" font-size="12" lengthAdjust="spacingAndGlyphs" textLength="68" x="849" y="963.1543">Customizer</text><!--MD5=[da5cd102f80a2596ba9be3a95ee9de7d]
class Newspack_Ads\\Placement_Customize_Control--><rect fill="#FEFECE" height="32" id="Newspack_Ads\\Placement_Customize_Control" style="stroke: #A80036; stroke-width: 1.5;" width="218" x="260" y="1077"/><ellipse cx="275" cy="1093" fill="#ADD1B2" rx="11" ry="11" style="stroke: #A80036; stroke-width: 1.0;"/><path d="M277.9688,1098.6406 Q277.3906,1098.9375 276.75,1099.0781 Q276.1094,1099.2344 275.4063,1099.2344 Q272.9063,1099.2344 271.5781,1097.5938 Q270.2656,1095.9375 270.2656,1092.8125 Q270.2656,1089.6875 271.5781,1088.0313 Q272.9063,1086.375 275.4063,1086.375 Q276.1094,1086.375 276.75,1086.5313 Q277.4063,1086.6875 277.9688,1086.9844 L277.9688,1089.7031 Q277.3438,1089.125 276.75,1088.8594 Q276.1563,1088.5781 275.5313,1088.5781 Q274.1875,1088.5781 273.5,1089.6563 Q272.8125,1090.7188 272.8125,1092.8125 Q272.8125,1094.9063 273.5,1095.9844 Q274.1875,1097.0469 275.5313,1097.0469 Q276.1563,1097.0469 276.75,1096.7813 Q277.3438,1096.5 277.9688,1095.9219 L277.9688,1098.6406 Z "/><text fill="#000000" font-family="sans-serif" font-size="12" lengthAdjust="spacingAndGlyphs" textLength="186" x="289" y="1097.1543">Placement_Customize_Control</text><!--MD5=[0079a893841518c844b058ade93ff512]
class Newspack_Ads\\Bidding\\Medianet--><rect fill="#FEFECE" height="32" id="Newspack_Ads\\Bidding\\Medianet" style="stroke: #A80036; stroke-width: 1.5;" width="140" x="800" y="876"/><ellipse cx="815" cy="892" fill="#ADD1B2" rx="11" ry="11" style="stroke: #A80036; stroke-width: 1.0;"/><path d="M817.9688,897.6406 Q817.3906,897.9375 816.75,898.0781 Q816.1094,898.2344 815.4063,898.2344 Q812.9063,898.2344 811.5781,896.5938 Q810.2656,894.9375 810.2656,891.8125 Q810.2656,888.6875 811.5781,887.0313 Q812.9063,885.375 815.4063,885.375 Q816.1094,885.375 816.75,885.5313 Q817.4063,885.6875 817.9688,885.9844 L817.9688,888.7031 Q817.3438,888.125 816.75,887.8594 Q816.1563,887.5781 815.5313,887.5781 Q814.1875,887.5781 813.5,888.6563 Q812.8125,889.7188 812.8125,891.8125 Q812.8125,893.9063 813.5,894.9844 Q814.1875,896.0469 815.5313,896.0469 Q816.1563,896.0469 816.75,895.7813 Q817.3438,895.5 817.9688,894.9219 L817.9688,897.6406 Z "/><text fill="#000000" font-family="sans-serif" font-size="12" lengthAdjust="spacingAndGlyphs" textLength="108" x="829" y="896.1543">Bidding\Medianet</text><!--MD5=[5bd701ef1e8b58124e99e408fb04d598]
class Newspack_Ads\\Bidding\\OpenX--><rect fill="#FEFECE" height="32" id="Newspack_Ads\\Bidding\\OpenX" style="stroke: #A80036; stroke-width: 1.5;" width="122" x="809" y="809"/><ellipse cx="824" cy="825" fill="#ADD1B2" rx="11" ry="11" style="stroke: #A80036; stroke-width: 1.0;"/><path d="M826.9688,830.6406 Q826.3906,830.9375 825.75,831.0781 Q825.1094,831.2344 824.4063,831.2344 Q821.9063,831.2344 820.5781,829.5938 Q819.2656,827.9375 819.2656,824.8125 Q819.2656,821.6875 820.5781,820.0313 Q821.9063,818.375 824.4063,818.375 Q825.1094,818.375 825.75,818.5313 Q826.4063,818.6875 826.9688,818.9844 L826.9688,821.7031 Q826.3438,821.125 825.75,820.8594 Q825.1563,820.5781 824.5313,820.5781 Q823.1875,820.5781 822.5,821.6563 Q821.8125,822.7188 821.8125,824.8125 Q821.8125,826.9063 822.5,827.9844 Q823.1875,829.0469 824.5313,829.0469 Q825.1563,829.0469 825.75,828.7813 Q826.3438,828.5 826.9688,827.9219 L826.9688,830.6406 Z "/><text fill="#000000" font-family="sans-serif" font-size="12" lengthAdjust="spacingAndGlyphs" textLength="90" x="838" y="829.1543">Bidding\OpenX</text><!--MD5=[5047e3032544144e6ab19013bf88ede6]
class Newspack_Ads\\Bidding\\PubMatic--><rect fill="#FEFECE" height="32" id="Newspack_Ads\\Bidding\\PubMatic" style="stroke: #A80036; stroke-width: 1.5;" width="139" x="800.5" y="742"/><ellipse cx="815.5" cy="758" fill="#ADD1B2" rx="11" ry="11" style="stroke: #A80036; stroke-width: 1.0;"/><path d="M818.4688,763.6406 Q817.8906,763.9375 817.25,764.0781 Q816.6094,764.2344 815.9063,764.2344 Q813.4063,764.2344 812.0781,762.5938 Q810.7656,760.9375 810.7656,757.8125 Q810.7656,754.6875 812.0781,753.0313 Q813.4063,751.375 815.9063,751.375 Q816.6094,751.375 817.25,751.5313 Q817.9063,751.6875 818.4688,751.9844 L818.4688,754.7031 Q817.8438,754.125 817.25,753.8594 Q816.6563,753.5781 816.0313,753.5781 Q814.6875,753.5781 814,754.6563 Q813.3125,755.7188 813.3125,757.8125 Q813.3125,759.9063 814,760.9844 Q814.6875,762.0469 816.0313,762.0469 Q816.6563,762.0469 817.25,761.7813 Q817.8438,761.5 818.4688,760.9219 L818.4688,763.6406 Z "/><text fill="#000000" font-family="sans-serif" font-size="12" lengthAdjust="spacingAndGlyphs" textLength="107" x="829.5" y="762.1543">Bidding\PubMatic</text><!--MD5=[ee93657a4902c86f1ee6e3494b456a3a]
class Newspack_Ads\\Bidding\\Sovrn--><rect fill="#FEFECE" height="32" id="Newspack_Ads\\Bidding\\Sovrn" style="stroke: #A80036; stroke-width: 1.5;" width="117" x="811.5" y="675"/><ellipse cx="826.5" cy="691" fill="#ADD1B2" rx="11" ry="11" style="stroke: #A80036; stroke-width: 1.0;"/><path d="M829.4688,696.6406 Q828.8906,696.9375 828.25,697.0781 Q827.6094,697.2344 826.9063,697.2344 Q824.4063,697.2344 823.0781,695.5938 Q821.7656,693.9375 821.7656,690.8125 Q821.7656,687.6875 823.0781,686.0313 Q824.4063,684.375 826.9063,684.375 Q827.6094,684.375 828.25,684.5313 Q828.9063,684.6875 829.4688,684.9844 L829.4688,687.7031 Q828.8438,687.125 828.25,686.8594 Q827.6563,686.5781 827.0313,686.5781 Q825.6875,686.5781 825,687.6563 Q824.3125,688.7188 824.3125,690.8125 Q824.3125,692.9063 825,693.9844 Q825.6875,695.0469 827.0313,695.0469 Q827.6563,695.0469 828.25,694.7813 Q828.8438,694.5 829.4688,693.9219 L829.4688,696.6406 Z "/><text fill="#000000" font-family="sans-serif" font-size="12" lengthAdjust="spacingAndGlyphs" textLength="85" x="840.5" y="695.1543">Bidding\Sovrn</text><!--MD5=[bb3b8fa1b3348743f26e4dbd61de8358]
class Newspack_Ads\\Providers\\Broadstreet_Provider--><rect fill="#FEFECE" height="32" id="Newspack_Ads\\Providers\\Broadstreet_Provider" style="stroke: #A80036; stroke-width: 1.5;" width="226" x="757" y="1144"/><ellipse cx="772" cy="1160" fill="#ADD1B2" rx="11" ry="11" style="stroke: #A80036; stroke-width: 1.0;"/><path d="M774.9688,1165.6406 Q774.3906,1165.9375 773.75,1166.0781 Q773.1094,1166.2344 772.4063,1166.2344 Q769.9063,1166.2344 768.5781,1164.5938 Q767.2656,1162.9375 767.2656,1159.8125 Q767.2656,1156.6875 768.5781,1155.0313 Q769.9063,1153.375 772.4063,1153.375 Q773.1094,1153.375 773.75,1153.5313 Q774.4063,1153.6875 774.9688,1153.9844 L774.9688,1156.7031 Q774.3438,1156.125 773.75,1155.8594 Q773.1563,1155.5781 772.5313,1155.5781 Q771.1875,1155.5781 770.5,1156.6563 Q769.8125,1157.7188 769.8125,1159.8125 Q769.8125,1161.9063 770.5,1162.9844 Q771.1875,1164.0469 772.5313,1164.0469 Q773.1563,1164.0469 773.75,1163.7813 Q774.3438,1163.5 774.9688,1162.9219 L774.9688,1165.6406 Z "/><text fill="#000000" font-family="sans-serif" font-size="12" lengthAdjust="spacingAndGlyphs" textLength="194" x="786" y="1164.1543">Providers\Broadstreet_Provider</text><!--MD5=[62d04f8e7f241d59a1ad2fdec554f8bf]
class Newspack_Ads\\Providers\\Provider--><rect fill="#FEFECE" height="32" id="Newspack_Ads\\Providers\\Provider" style="stroke: #A80036; stroke-width: 1.5;" width="82" x="576.5" y="1144"/><ellipse cx="591.5" cy="1160" fill="#A9DCDF" rx="11" ry="11" style="stroke: #A80036; stroke-width: 1.0;"/><path d="M591.6094,1155.3438 L590.4531,1160.4219 L592.7813,1160.4219 L591.6094,1155.3438 Z M590.125,1153.1094 L593.1094,1153.1094 L596.4688,1165.5 L594.0156,1165.5 L593.25,1162.4375 L589.9688,1162.4375 L589.2188,1165.5 L586.7813,1165.5 L590.125,1153.1094 Z "/><text fill="#000000" font-family="sans-serif" font-size="12" font-style="italic" lengthAdjust="spacingAndGlyphs" textLength="50" x="605.5" y="1164.1543">Provider</text><!--MD5=[15854a290f63dca98161da21c923a34f]
class Newspack_Ads\\Providers\\Provider_Interface--><rect fill="#FEFECE" height="32" id="Newspack_Ads\\Providers\\Provider_Interface" style="stroke: #A80036; stroke-width: 1.5;" width="145" x="296.5" y="1144"/><ellipse cx="311.5" cy="1160" fill="#B4A7E5" rx="11" ry="11" style="stroke: #A80036; stroke-width: 1.0;"/><path d="M307.4219,1155.7656 L307.4219,1153.6094 L314.8125,1153.6094 L314.8125,1155.7656 L312.3438,1155.7656 L312.3438,1163.8438 L314.8125,1163.8438 L314.8125,1166 L307.4219,1166 L307.4219,1163.8438 L309.8906,1163.8438 L309.8906,1155.7656 L307.4219,1155.7656 Z "/><text fill="#000000" font-family="sans-serif" font-size="12" font-style="italic" lengthAdjust="spacingAndGlyphs" textLength="113" x="325.5" y="1164.1543">Provider_Interface</text><!--MD5=[e97b037107e5a1904323ca471a465739]
class Newspack_Ads\\Providers\\GAM_Ad_Block_Recovery--><rect fill="#FEFECE" height="32" id="Newspack_Ads\\Providers\\GAM_Ad_Block_Recovery" style="stroke: #A80036; stroke-width: 1.5;" width="244" x="1043" y="943"/><ellipse cx="1058" cy="959" fill="#ADD1B2" rx="11" ry="11" style="stroke: #A80036; stroke-width: 1.0;"/><path d="M1060.9688,964.6406 Q1060.3906,964.9375 1059.75,965.0781 Q1059.1094,965.2344 1058.4063,965.2344 Q1055.9063,965.2344 1054.5781,963.5938 Q1053.2656,961.9375 1053.2656,958.8125 Q1053.2656,955.6875 1054.5781,954.0313 Q1055.9063,952.375 1058.4063,952.375 Q1059.1094,952.375 1059.75,952.5313 Q1060.4063,952.6875 1060.9688,952.9844 L1060.9688,955.7031 Q1060.3438,955.125 1059.75,954.8594 Q1059.1563,954.5781 1058.5313,954.5781 Q1057.1875,954.5781 1056.5,955.6563 Q1055.8125,956.7188 1055.8125,958.8125 Q1055.8125,960.9063 1056.5,961.9844 Q1057.1875,963.0469 1058.5313,963.0469 Q1059.1563,963.0469 1059.75,962.7813 Q1060.3438,962.5 1060.9688,961.9219 L1060.9688,964.6406 Z "/><text fill="#000000" font-family="sans-serif" font-size="12" lengthAdjust="spacingAndGlyphs" textLength="212" x="1072" y="963.1543">Providers\GAM_Ad_Block_Recovery</text><!--MD5=[e87595d9612ce73aa4aec50e7042d4fa]
class Newspack_Ads\\Providers\\GAM_Lazy_Load--><rect fill="#FEFECE" height="32" id="Newspack_Ads\\Providers\\GAM_Lazy_Load" style="stroke: #A80036; stroke-width: 1.5;" width="188" x="1071" y="876"/><ellipse cx="1086" cy="892" fill="#ADD1B2" rx="11" ry="11" style="stroke: #A80036; stroke-width: 1.0;"/><path d="M1088.9688,897.6406 Q1088.3906,897.9375 1087.75,898.0781 Q1087.1094,898.2344 1086.4063,898.2344 Q1083.9063,898.2344 1082.5781,896.5938 Q1081.2656,894.9375 1081.2656,891.8125 Q1081.2656,888.6875 1082.5781,887.0313 Q1083.9063,885.375 1086.4063,885.375 Q1087.1094,885.375 1087.75,885.5313 Q1088.4063,885.6875 1088.9688,885.9844 L1088.9688,888.7031 Q1088.3438,888.125 1087.75,887.8594 Q1087.1563,887.5781 1086.5313,887.5781 Q1085.1875,887.5781 1084.5,888.6563 Q1083.8125,889.7188 1083.8125,891.8125 Q1083.8125,893.9063 1084.5,894.9844 Q1085.1875,896.0469 1086.5313,896.0469 Q1087.1563,896.0469 1087.75,895.7813 Q1088.3438,895.5 1088.9688,894.9219 L1088.9688,897.6406 Z "/><text fill="#000000" font-family="sans-serif" font-size="12" lengthAdjust="spacingAndGlyphs" textLength="156" x="1100" y="896.1543">Providers\GAM_Lazy_Load</text><!--MD5=[ca36600bf95bbd955ed361c2e47d0e89]
class Newspack_Ads\\Providers\\GAM_Model--><rect fill="#FEFECE" height="32" id="Newspack_Ads\\Providers\\GAM_Model" style="stroke: #A80036; stroke-width: 1.5;" width="164" x="1083" y="809"/><ellipse cx="1098" cy="825" fill="#ADD1B2" rx="11" ry="11" style="stroke: #A80036; stroke-width: 1.0;"/><path d="M1100.9688,830.6406 Q1100.3906,830.9375 1099.75,831.0781 Q1099.1094,831.2344 1098.4063,831.2344 Q1095.9063,831.2344 1094.5781,829.5938 Q1093.2656,827.9375 1093.2656,824.8125 Q1093.2656,821.6875 1094.5781,820.0313 Q1095.9063,818.375 1098.4063,818.375 Q1099.1094,818.375 1099.75,818.5313 Q1100.4063,818.6875 1100.9688,818.9844 L1100.9688,821.7031 Q1100.3438,821.125 1099.75,820.8594 Q1099.1563,820.5781 1098.5313,820.5781 Q1097.1875,820.5781 1096.5,821.6563 Q1095.8125,822.7188 1095.8125,824.8125 Q1095.8125,826.9063 1096.5,827.9844 Q1097.1875,829.0469 1098.5313,829.0469 Q1099.1563,829.0469 1099.75,828.7813 Q1100.3438,828.5 1100.9688,827.9219 L1100.9688,830.6406 Z "/><text fill="#000000" font-family="sans-serif" font-size="12" lengthAdjust="spacingAndGlyphs" textLength="132" x="1112" y="829.1543">Providers\GAM_Model</text><!--MD5=[88273fe0d7a68460f1c5f86af3e60f59]
class Newspack_Ads\\Providers\\GAM_Provider--><rect fill="#FEFECE" height="32" id="Newspack_Ads\\Providers\\GAM_Provider" style="stroke: #A80036; stroke-width: 1.5;" width="178" x="781" y="1077"/><ellipse cx="796" cy="1093" fill="#ADD1B2" rx="11" ry="11" style="stroke: #A80036; stroke-width: 1.0;"/><path d="M798.9688,1098.6406 Q798.3906,1098.9375 797.75,1099.0781 Q797.1094,1099.2344 796.4063,1099.2344 Q793.9063,1099.2344 792.5781,1097.5938 Q791.2656,1095.9375 791.2656,1092.8125 Q791.2656,1089.6875 792.5781,1088.0313 Q793.9063,1086.375 796.4063,1086.375 Q797.1094,1086.375 797.75,1086.5313 Q798.4063,1086.6875 798.9688,1086.9844 L798.9688,1089.7031 Q798.3438,1089.125 797.75,1088.8594 Q797.1563,1088.5781 796.5313,1088.5781 Q795.1875,1088.5781 794.5,1089.6563 Q793.8125,1090.7188 793.8125,1092.8125 Q793.8125,1094.9063 794.5,1095.9844 Q795.1875,1097.0469 796.5313,1097.0469 Q797.1563,1097.0469 797.75,1096.7813 Q798.3438,1096.5 798.9688,1095.9219 L798.9688,1098.6406 Z "/><text fill="#000000" font-family="sans-serif" font-size="12" lengthAdjust="spacingAndGlyphs" textLength="146" x="810" y="1097.1543">Providers\GAM_Provider</text><!--MD5=[9ad23c41ae8567811d9c5fee37f1f0c0]
class Newspack_Ads\\Providers\\GAM_Scripts--><rect fill="#FEFECE" height="32" id="Newspack_Ads\\Providers\\GAM_Scripts" style="stroke: #A80036; stroke-width: 1.5;" width="170" x="1080" y="742"/><ellipse cx="1095" cy="758" fill="#ADD1B2" rx="11" ry="11" style="stroke: #A80036; stroke-width: 1.0;"/><path d="M1097.9688,763.6406 Q1097.3906,763.9375 1096.75,764.0781 Q1096.1094,764.2344 1095.4063,764.2344 Q1092.9063,764.2344 1091.5781,762.5938 Q1090.2656,760.9375 1090.2656,757.8125 Q1090.2656,754.6875 1091.5781,753.0313 Q1092.9063,751.375 1095.4063,751.375 Q1096.1094,751.375 1096.75,751.5313 Q1097.4063,751.6875 1097.9688,751.9844 L1097.9688,754.7031 Q1097.3438,754.125 1096.75,753.8594 Q1096.1563,753.5781 1095.5313,753.5781 Q1094.1875,753.5781 1093.5,754.6563 Q1092.8125,755.7188 1092.8125,757.8125 Q1092.8125,759.9063 1093.5,760.9844 Q1094.1875,762.0469 1095.5313,762.0469 Q1096.1563,762.0469 1096.75,761.7813 Q1097.3438,761.5 1097.9688,760.9219 L1097.9688,763.6406 Z "/><text fill="#000000" font-family="sans-serif" font-size="12" lengthAdjust="spacingAndGlyphs" textLength="138" x="1109" y="762.1543">Providers\GAM_Scripts</text><!--MD5=[936d628f6699de18407a5207bcea85a9]
class Newspack_Ads\\Integrations\\Ad_Refresh_Control--><rect fill="#FEFECE" height="32" id="Newspack_Ads\\Integrations\\Ad_Refresh_Control" style="stroke: #A80036; stroke-width: 1.5;" width="153" x="38" y="568"/><ellipse cx="53" cy="584" fill="#ADD1B2" rx="11" ry="11" style="stroke: #A80036; stroke-width: 1.0;"/><path d="M55.9688,589.6406 Q55.3906,589.9375 54.75,590.0781 Q54.1094,590.2344 53.4063,590.2344 Q50.9063,590.2344 49.5781,588.5938 Q48.2656,586.9375 48.2656,583.8125 Q48.2656,580.6875 49.5781,579.0313 Q50.9063,577.375 53.4063,577.375 Q54.1094,577.375 54.75,577.5313 Q55.4063,577.6875 55.9688,577.9844 L55.9688,580.7031 Q55.3438,580.125 54.75,579.8594 Q54.1563,579.5781 53.5313,579.5781 Q52.1875,579.5781 51.5,580.6563 Q50.8125,581.7188 50.8125,583.8125 Q50.8125,585.9063 51.5,586.9844 Q52.1875,588.0469 53.5313,588.0469 Q54.1563,588.0469 54.75,587.7813 Q55.3438,587.5 55.9688,586.9219 L55.9688,589.6406 Z "/><text fill="#000000" font-family="sans-serif" font-size="12" lengthAdjust="spacingAndGlyphs" textLength="121" x="67" y="588.1543">Ad_Refresh_Control</text><!--MD5=[f62009f98e2c6bc501eea3261ecd5409]
class Newspack_Ads\\Integrations\\Bidding_GAM--><rect fill="#FEFECE" height="32" id="Newspack_Ads\\Integrations\\Bidding_GAM" style="stroke: #A80036; stroke-width: 1.5;" width="111" x="59" y="501"/><ellipse cx="74" cy="517" fill="#ADD1B2" rx="11" ry="11" style="stroke: #A80036; stroke-width: 1.0;"/><path d="M76.9688,522.6406 Q76.3906,522.9375 75.75,523.0781 Q75.1094,523.2344 74.4063,523.2344 Q71.9063,523.2344 70.5781,521.5938 Q69.2656,519.9375 69.2656,516.8125 Q69.2656,513.6875 70.5781,512.0313 Q71.9063,510.375 74.4063,510.375 Q75.1094,510.375 75.75,510.5313 Q76.4063,510.6875 76.9688,510.9844 L76.9688,513.7031 Q76.3438,513.125 75.75,512.8594 Q75.1563,512.5781 74.5313,512.5781 Q73.1875,512.5781 72.5,513.6563 Q71.8125,514.7188 71.8125,516.8125 Q71.8125,518.9063 72.5,519.9844 Q73.1875,521.0469 74.5313,521.0469 Q75.1563,521.0469 75.75,520.7813 Q76.3438,520.5 76.9688,519.9219 L76.9688,522.6406 Z "/><text fill="#000000" font-family="sans-serif" font-size="12" lengthAdjust="spacingAndGlyphs" textLength="79" x="88" y="521.1543">Bidding_GAM</text><!--MD5=[f57201ce8aeabf68aeb29b5b03bce703]
class Newspack_Ads\\Integrations\\SCAIP--><rect fill="#FEFECE" height="32" id="Newspack_Ads\\Integrations\\SCAIP" style="stroke: #A80036; stroke-width: 1.5;" width="67" x="335.5" y="568"/><ellipse cx="350.5" cy="584" fill="#ADD1B2" rx="11" ry="11" style="stroke: #A80036; stroke-width: 1.0;"/><path d="M353.4688,589.6406 Q352.8906,589.9375 352.25,590.0781 Q351.6094,590.2344 350.9063,590.2344 Q348.4063,590.2344 347.0781,588.5938 Q345.7656,586.9375 345.7656,583.8125 Q345.7656,580.6875 347.0781,579.0313 Q348.4063,577.375 350.9063,577.375 Q351.6094,577.375 352.25,577.5313 Q352.9063,577.6875 353.4688,577.9844 L353.4688,580.7031 Q352.8438,580.125 352.25,579.8594 Q351.6563,579.5781 351.0313,579.5781 Q349.6875,579.5781 349,580.6563 Q348.3125,581.7188 348.3125,583.8125 Q348.3125,585.9063 349,586.9844 Q349.6875,588.0469 351.0313,588.0469 Q351.6563,588.0469 352.25,587.7813 Q352.8438,587.5 353.4688,586.9219 L353.4688,589.6406 Z "/><text fill="#000000" font-family="sans-serif" font-size="12" lengthAdjust="spacingAndGlyphs" textLength="35" x="364.5" y="588.1543">SCAIP</text><!--MD5=[aafcb3ab3d0d2618af87e5cca0aa7dde]
class Newspack_Ads\\Providers\\GAM\\Api--><rect fill="#FEFECE" height="32" id="Newspack_Ads\\Providers\\GAM\\Api" style="stroke: #A80036; stroke-width: 1.5;" width="51" x="89" y="93"/><ellipse cx="104" cy="109" fill="#ADD1B2" rx="11" ry="11" style="stroke: #A80036; stroke-width: 1.0;"/><path d="M106.9688,114.6406 Q106.3906,114.9375 105.75,115.0781 Q105.1094,115.2344 104.4063,115.2344 Q101.9063,115.2344 100.5781,113.5938 Q99.2656,111.9375 99.2656,108.8125 Q99.2656,105.6875 100.5781,104.0313 Q101.9063,102.375 104.4063,102.375 Q105.1094,102.375 105.75,102.5313 Q106.4063,102.6875 106.9688,102.9844 L106.9688,105.7031 Q106.3438,105.125 105.75,104.8594 Q105.1563,104.5781 104.5313,104.5781 Q103.1875,104.5781 102.5,105.6563 Q101.8125,106.7188 101.8125,108.8125 Q101.8125,110.9063 102.5,111.9844 Q103.1875,113.0469 104.5313,113.0469 Q105.1563,113.0469 105.75,112.7813 Q106.3438,112.5 106.9688,111.9219 L106.9688,114.6406 Z "/><text fill="#000000" font-family="sans-serif" font-size="12" lengthAdjust="spacingAndGlyphs" textLength="19" x="118" y="113.1543">Api</text><!--MD5=[f863225468a4aacb0d885670df110540]
class Newspack_Ads\\Providers\\GAM\\Api\\Ad_Units--><rect fill="#FEFECE" height="32" id="Newspack_Ads\\Providers\\GAM\\Api\\Ad_Units" style="stroke: #A80036; stroke-width: 1.5;" width="109" x="314.5" y="394"/><ellipse cx="329.5" cy="410" fill="#ADD1B2" rx="11" ry="11" style="stroke: #A80036; stroke-width: 1.0;"/><path d="M332.4688,415.6406 Q331.8906,415.9375 331.25,416.0781 Q330.6094,416.2344 329.9063,416.2344 Q327.4063,416.2344 326.0781,414.5938 Q324.7656,412.9375 324.7656,409.8125 Q324.7656,406.6875 326.0781,405.0313 Q327.4063,403.375 329.9063,403.375 Q330.6094,403.375 331.25,403.5313 Q331.9063,403.6875 332.4688,403.9844 L332.4688,406.7031 Q331.8438,406.125 331.25,405.8594 Q330.6563,405.5781 330.0313,405.5781 Q328.6875,405.5781 328,406.6563 Q327.3125,407.7188 327.3125,409.8125 Q327.3125,411.9063 328,412.9844 Q328.6875,414.0469 330.0313,414.0469 Q330.6563,414.0469 331.25,413.7813 Q331.8438,413.5 332.4688,412.9219 L332.4688,415.6406 Z "/><text fill="#000000" font-family="sans-serif" font-size="12" lengthAdjust="spacingAndGlyphs" textLength="77" x="343.5" y="414.1543">Api\Ad_Units</text><!--MD5=[f3db0918b4b5adbc29870af1a6392033]
class Newspack_Ads\\Providers\\GAM\\Api\\Api_Object--><rect fill="#FEFECE" height="32" id="Newspack_Ads\\Providers\\GAM\\Api\\Api_Object" style="stroke: #A80036; stroke-width: 1.5;" width="96" x="66.5" y="227"/><ellipse cx="81.5" cy="243" fill="#A9DCDF" rx="11" ry="11" style="stroke: #A80036; stroke-width: 1.0;"/><path d="M81.6094,238.3438 L80.4531,243.4219 L82.7813,243.4219 L81.6094,238.3438 Z M80.125,236.1094 L83.1094,236.1094 L86.4688,248.5 L84.0156,248.5 L83.25,245.4375 L79.9688,245.4375 L79.2188,248.5 L76.7813,248.5 L80.125,236.1094 Z "/><text fill="#000000" font-family="sans-serif" font-size="12" font-style="italic" lengthAdjust="spacingAndGlyphs" textLength="64" x="95.5" y="247.1543">Api_Object</text><!--MD5=[3da13d8e6d7c2f86fdce5a34924bbe0c]
class Newspack_Ads\\Providers\\GAM\\Api\\Advertisers--><rect fill="#FEFECE" height="32" id="Newspack_Ads\\Providers\\GAM\\Api\\Advertisers" style="stroke: #A80036; stroke-width: 1.5;" width="125" x="306.5" y="327"/><ellipse cx="321.5" cy="343" fill="#ADD1B2" rx="11" ry="11" style="stroke: #A80036; stroke-width: 1.0;"/><path d="M324.4688,348.6406 Q323.8906,348.9375 323.25,349.0781 Q322.6094,349.2344 321.9063,349.2344 Q319.4063,349.2344 318.0781,347.5938 Q316.7656,345.9375 316.7656,342.8125 Q316.7656,339.6875 318.0781,338.0313 Q319.4063,336.375 321.9063,336.375 Q322.6094,336.375 323.25,336.5313 Q323.9063,336.6875 324.4688,336.9844 L324.4688,339.7031 Q323.8438,339.125 323.25,338.8594 Q322.6563,338.5781 322.0313,338.5781 Q320.6875,338.5781 320,339.6563 Q319.3125,340.7188 319.3125,342.8125 Q319.3125,344.9063 320,345.9844 Q320.6875,347.0469 322.0313,347.0469 Q322.6563,347.0469 323.25,346.7813 Q323.8438,346.5 324.4688,345.9219 L324.4688,348.6406 Z "/><text fill="#000000" font-family="sans-serif" font-size="12" lengthAdjust="spacingAndGlyphs" textLength="93" x="335.5" y="347.1543">Api\Advertisers</text><!--MD5=[c315103f67f19fbe881f6de04917bf0f]
class Newspack_Ads\\Providers\\GAM\\Api\\Creatives--><rect fill="#FEFECE" height="32" id="Newspack_Ads\\Providers\\GAM\\Api\\Creatives" style="stroke: #A80036; stroke-width: 1.5;" width="113" x="312.5" y="260"/><ellipse cx="327.5" cy="276" fill="#ADD1B2" rx="11" ry="11" style="stroke: #A80036; stroke-width: 1.0;"/><path d="M330.4688,281.6406 Q329.8906,281.9375 329.25,282.0781 Q328.6094,282.2344 327.9063,282.2344 Q325.4063,282.2344 324.0781,280.5938 Q322.7656,278.9375 322.7656,275.8125 Q322.7656,272.6875 324.0781,271.0313 Q325.4063,269.375 327.9063,269.375 Q328.6094,269.375 329.25,269.5313 Q329.9063,269.6875 330.4688,269.9844 L330.4688,272.7031 Q329.8438,272.125 329.25,271.8594 Q328.6563,271.5781 328.0313,271.5781 Q326.6875,271.5781 326,272.6563 Q325.3125,273.7188 325.3125,275.8125 Q325.3125,277.9063 326,278.9844 Q326.6875,280.0469 328.0313,280.0469 Q328.6563,280.0469 329.25,279.7813 Q329.8438,279.5 330.4688,278.9219 L330.4688,281.6406 Z "/><text fill="#000000" font-family="sans-serif" font-size="12" lengthAdjust="spacingAndGlyphs" textLength="81" x="341.5" y="280.1543">Api\Creatives</text><!--MD5=[dea622930d6a635563a43b9f1997fee3]
class Newspack_Ads\\Providers\\GAM\\Api\\Line_Items--><rect fill="#FEFECE" height="32" id="Newspack_Ads\\Providers\\GAM\\Api\\Line_Items" style="stroke: #A80036; stroke-width: 1.5;" width="120" x="309" y="193"/><ellipse cx="324" cy="209" fill="#ADD1B2" rx="11" ry="11" style="stroke: #A80036; stroke-width: 1.0;"/><path d="M326.9688,214.6406 Q326.3906,214.9375 325.75,215.0781 Q325.1094,215.2344 324.4063,215.2344 Q321.9063,215.2344 320.5781,213.5938 Q319.2656,211.9375 319.2656,208.8125 Q319.2656,205.6875 320.5781,204.0313 Q321.9063,202.375 324.4063,202.375 Q325.1094,202.375 325.75,202.5313 Q326.4063,202.6875 326.9688,202.9844 L326.9688,205.7031 Q326.3438,205.125 325.75,204.8594 Q325.1563,204.5781 324.5313,204.5781 Q323.1875,204.5781 322.5,205.6563 Q321.8125,206.7188 321.8125,208.8125 Q321.8125,210.9063 322.5,211.9844 Q323.1875,213.0469 324.5313,213.0469 Q325.1563,213.0469 325.75,212.7813 Q326.3438,212.5 326.9688,211.9219 L326.9688,214.6406 Z "/><text fill="#000000" font-family="sans-serif" font-size="12" lengthAdjust="spacingAndGlyphs" textLength="88" x="338" y="213.1543">Api\Line_Items</text><!--MD5=[3e879c2d6dd98b3bae4035b1a8e62872]
class Newspack_Ads\\Providers\\GAM\\Api\\Orders--><rect fill="#FEFECE" height="32" id="Newspack_Ads\\Providers\\GAM\\Api\\Orders" style="stroke: #A80036; stroke-width: 1.5;" width="97" x="320.5" y="126"/><ellipse cx="335.5" cy="142" fill="#ADD1B2" rx="11" ry="11" style="stroke: #A80036; stroke-width: 1.0;"/><path d="M338.4688,147.6406 Q337.8906,147.9375 337.25,148.0781 Q336.6094,148.2344 335.9063,148.2344 Q333.4063,148.2344 332.0781,146.5938 Q330.7656,144.9375 330.7656,141.8125 Q330.7656,138.6875 332.0781,137.0313 Q333.4063,135.375 335.9063,135.375 Q336.6094,135.375 337.25,135.5313 Q337.9063,135.6875 338.4688,135.9844 L338.4688,138.7031 Q337.8438,138.125 337.25,137.8594 Q336.6563,137.5781 336.0313,137.5781 Q334.6875,137.5781 334,138.6563 Q333.3125,139.7188 333.3125,141.8125 Q333.3125,143.9063 334,144.9844 Q334.6875,146.0469 336.0313,146.0469 Q336.6563,146.0469 337.25,145.7813 Q337.8438,145.5 338.4688,144.9219 L338.4688,147.6406 Z "/><text fill="#000000" font-family="sans-serif" font-size="12" lengthAdjust="spacingAndGlyphs" textLength="65" x="349.5" y="146.1543">Api\Orders</text><!--MD5=[4bf7bf6485bdfd5758287cb053d0b63b]
class Newspack_Ads\\Providers\\GAM\\Api\\Targeting_Keys--><rect fill="#FEFECE" height="32" id="Newspack_Ads\\Providers\\GAM\\Api\\Targeting_Keys" style="stroke: #A80036; stroke-width: 1.5;" width="149" x="294.5" y="59"/><ellipse cx="309.5" cy="75" fill="#ADD1B2" rx="11" ry="11" style="stroke: #A80036; stroke-width: 1.0;"/><path d="M312.4688,80.6406 Q311.8906,80.9375 311.25,81.0781 Q310.6094,81.2344 309.9063,81.2344 Q307.4063,81.2344 306.0781,79.5938 Q304.7656,77.9375 304.7656,74.8125 Q304.7656,71.6875 306.0781,70.0313 Q307.4063,68.375 309.9063,68.375 Q310.6094,68.375 311.25,68.5313 Q311.9063,68.6875 312.4688,68.9844 L312.4688,71.7031 Q311.8438,71.125 311.25,70.8594 Q310.6563,70.5781 310.0313,70.5781 Q308.6875,70.5781 308,71.6563 Q307.3125,72.7188 307.3125,74.8125 Q307.3125,76.9063 308,77.9844 Q308.6875,79.0469 310.0313,79.0469 Q310.6563,79.0469 311.25,78.7813 Q311.8438,78.5 312.4688,77.9219 L312.4688,80.6406 Z "/><text fill="#000000" font-family="sans-serif" font-size="12" lengthAdjust="spacingAndGlyphs" textLength="117" x="323.5" y="79.1543">Api\Targeting_Keys</text><!--MD5=[a91c9a57aa8596db68781ed42eb399b0]
class WP_Widget--><rect fill="#FEFECE" height="32" id="WP_Widget" style="stroke: #A80036; stroke-width: 1.5;" width="100" x="64.5" y="1010"/><ellipse cx="79.5" cy="1026" fill="#ADD1B2" rx="11" ry="11" style="stroke: #A80036; stroke-width: 1.0;"/><path d="M82.4688,1031.6406 Q81.8906,1031.9375 81.25,1032.0781 Q80.6094,1032.2344 79.9063,1032.2344 Q77.4063,1032.2344 76.0781,1030.5938 Q74.7656,1028.9375 74.7656,1025.8125 Q74.7656,1022.6875 76.0781,1021.0313 Q77.4063,1019.375 79.9063,1019.375 Q80.6094,1019.375 81.25,1019.5313 Q81.9063,1019.6875 82.4688,1019.9844 L82.4688,1022.7031 Q81.8438,1022.125 81.25,1021.8594 Q80.6563,1021.5781 80.0313,1021.5781 Q78.6875,1021.5781 78,1022.6563 Q77.3125,1023.7188 77.3125,1025.8125 Q77.3125,1027.9063 78,1028.9844 Q78.6875,1030.0469 80.0313,1030.0469 Q80.6563,1030.0469 81.25,1029.7813 Q81.8438,1029.5 82.4688,1028.9219 L82.4688,1031.6406 Z "/><text fill="#000000" font-family="sans-serif" font-size="12" lengthAdjust="spacingAndGlyphs" textLength="68" x="93.5" y="1030.1543">WP_Widget</text><!--MD5=[8b5a9211302e6356f8750bf1ab51114b]
class WP_Customize_Control--><rect fill="#FEFECE" height="32" id="WP_Customize_Control" style="stroke: #A80036; stroke-width: 1.5;" width="171" x="29" y="1077"/><ellipse cx="44" cy="1093" fill="#ADD1B2" rx="11" ry="11" style="stroke: #A80036; stroke-width: 1.0;"/><path d="M46.9688,1098.6406 Q46.3906,1098.9375 45.75,1099.0781 Q45.1094,1099.2344 44.4063,1099.2344 Q41.9063,1099.2344 40.5781,1097.5938 Q39.2656,1095.9375 39.2656,1092.8125 Q39.2656,1089.6875 40.5781,1088.0313 Q41.9063,1086.375 44.4063,1086.375 Q45.1094,1086.375 45.75,1086.5313 Q46.4063,1086.6875 46.9688,1086.9844 L46.9688,1089.7031 Q46.3438,1089.125 45.75,1088.8594 Q45.1563,1088.5781 44.5313,1088.5781 Q43.1875,1088.5781 42.5,1089.6563 Q41.8125,1090.7188 41.8125,1092.8125 Q41.8125,1094.9063 42.5,1095.9844 Q43.1875,1097.0469 44.5313,1097.0469 Q45.1563,1097.0469 45.75,1096.7813 Q46.3438,1096.5 46.9688,1095.9219 L46.9688,1098.6406 Z "/><text fill="#000000" font-family="sans-serif" font-size="12" lengthAdjust="spacingAndGlyphs" textLength="139" x="58" y="1097.1543">WP_Customize_Control</text><!--MD5=[e8882122b8cc44ab46c4af5f7d448a6e]
reverse link WP_Widget to Newspack_Ads\\Widget--><path d="M184.78,1026 C184.78,1026 331.24,1026 331.24,1026 " fill="none" id="WP_Widget&lt;-Newspack_Ads\\Widget" style="stroke: #516F42; stroke-width: 1.0;"/><polygon fill="none" points="184.78,1033,164.78,1026,184.78,1019,184.78,1033" style="stroke: #516F42; stroke-width: 1.0;"/><!--MD5=[353fee3788aabf5384d7cfc35bb77c54]
reverse link WP_Customize_Control to Newspack_Ads\\Placement_Customize_Control--><path d="M220.31,1093 C220.31,1093 259.64,1093 259.64,1093 " fill="none" id="WP_Customize_Control&lt;-Newspack_Ads\\Placement_Customize_Control" style="stroke: #516F42; stroke-width: 1.0;"/><polygon fill="none" points="220.31,1100,200.31,1093,220.31,1086,220.31,1100" style="stroke: #516F42; stroke-width: 1.0;"/><!--MD5=[cf7cf2b7974df799df80f5940a4d4e9e]
reverse link Newspack_Ads\\Providers\\Provider to Newspack_Ads\\Providers\\Broadstreet_Provider--><path d="M678.63,1160 C678.63,1160 756.95,1160 756.95,1160 " fill="none" id="Newspack_Ads\\Providers\\Provider&lt;-Newspack_Ads\\Providers\\Broadstreet_Provider" style="stroke: #516F42; stroke-width: 1.0;"/><polygon fill="none" points="678.63,1167,658.63,1160,678.63,1153,678.63,1167" style="stroke: #516F42; stroke-width: 1.0;"/><!--MD5=[ab50f621a823753068775f4c7c4cc5e7]
reverse link Newspack_Ads\\Providers\\Provider_Interface to Newspack_Ads\\Providers\\Provider--><path d="M461.54,1160 C461.54,1160 576.26,1160 576.26,1160 " fill="none" id="Newspack_Ads\\Providers\\Provider_Interface&lt;-Newspack_Ads\\Providers\\Provider" style="stroke: #516F42; stroke-width: 1.0; stroke-dasharray: 7.0,7.0;"/><polygon fill="none" points="461.54,1167,441.54,1160,461.54,1153,461.54,1167" style="stroke: #516F42; stroke-width: 1.0;"/><!--MD5=[6cea8cdc83de81b997dd9b6597a1d9c3]
reverse link Newspack_Ads\\Providers\\Provider to Newspack_Ads\\Providers\\GAM_Provider--><path d="M618,1123.78 C618,1123.78 618,1093 618,1093 C618,1093 708.31,1093 780.8,1093 " fill="none" id="Newspack_Ads\\Providers\\Provider&lt;-Newspack_Ads\\Providers\\GAM_Provider" style="stroke: #516F42; stroke-width: 1.0;"/><polygon fill="none" points="625,1123.78,618,1143.78,611,1123.78,625,1123.78" style="stroke: #516F42; stroke-width: 1.0;"/><!--MD5=[2b993428f97c9e72a19e6452b4e7084a]
reverse link Newspack_Ads\\Providers\\GAM\\Api\\Api_Object to Newspack_Ads\\Providers\\GAM\\Api\\Ad_Units--><path d="M91,279.01 C91,279.01 91,410 91,410 C91,410 233.45,410 314.41,410 " fill="none" id="Newspack_Ads\\Providers\\GAM\\Api\\Api_Object&lt;-Newspack_Ads\\Providers\\GAM\\Api\\Ad_Units" style="stroke: #516F42; stroke-width: 1.0;"/><polygon fill="none" points="84,279.01,91,259.01,98,279.01,84,279.01" style="stroke: #516F42; stroke-width: 1.0;"/><!--MD5=[52adb1cad03165ed4a5a68b71ba6e006]
reverse link Newspack_Ads\\Providers\\GAM\\Api\\Api_Object to Newspack_Ads\\Providers\\GAM\\Api\\Advertisers--><path d="M115,279.07 C115,279.07 115,343 115,343 C115,343 231,343 306.21,343 " fill="none" id="Newspack_Ads\\Providers\\GAM\\Api\\Api_Object&lt;-Newspack_Ads\\Providers\\GAM\\Api\\Advertisers" style="stroke: #516F42; stroke-width: 1.0;"/><polygon fill="none" points="108,279.07,115,259.07,122,279.07,108,279.07" style="stroke: #516F42; stroke-width: 1.0;"/><!--MD5=[4f929bd752b4b737d3828020d8697290]
reverse link Newspack_Ads\\Providers\\GAM\\Api\\Api_Object to Newspack_Ads\\Providers\\GAM\\Api\\Creatives--><path d="M139,274.31 C139,274.31 139,276 139,276 C139,276 244.34,276 312.44,276 " fill="none" id="Newspack_Ads\\Providers\\GAM\\Api\\Api_Object&lt;-Newspack_Ads\\Providers\\GAM\\Api\\Creatives" style="stroke: #516F42; stroke-width: 1.0;"/><polygon fill="none" points="132,279.11,139,259.11,146,279.11,132,279.11" style="stroke: #516F42; stroke-width: 1.0;"/><!--MD5=[2b5df61416f2a30d3d642ec6c0f1fe97]
reverse link Newspack_Ads\\Providers\\GAM\\Api\\Api_Object to Newspack_Ads\\Providers\\GAM\\Api\\Line_Items--><path d="M155,210.78 C155,210.78 155,209 155,209 C155,209 245.52,209 308.82,209 " fill="none" id="Newspack_Ads\\Providers\\GAM\\Api\\Api_Object&lt;-Newspack_Ads\\Providers\\GAM\\Api\\Line_Items" style="stroke: #516F42; stroke-width: 1.0;"/><polygon fill="none" points="162,206.8,155,226.8,148,206.8,162,206.8" style="stroke: #516F42; stroke-width: 1.0;"/><!--MD5=[f3b2859043e87a9763b0c79a83248e02]
reverse link Newspack_Ads\\Providers\\GAM\\Api\\Api_Object to Newspack_Ads\\Providers\\GAM\\Api\\Orders--><path d="M148,206.77 C148,206.77 148,142 148,142 C148,142 255.14,142 320.23,142 " fill="none" id="Newspack_Ads\\Providers\\GAM\\Api\\Api_Object&lt;-Newspack_Ads\\Providers\\GAM\\Api\\Orders" style="stroke: #516F42; stroke-width: 1.0;"/><polygon fill="none" points="155,206.77,148,226.77,141,206.77,155,206.77" style="stroke: #516F42; stroke-width: 1.0;"/><!--MD5=[5a0445e326b3da63600e803c91188007]
reverse link Newspack_Ads\\Providers\\GAM\\Api\\Api_Object to Newspack_Ads\\Providers\\GAM\\Api\\Targeting_Keys--><path d="M182.53,243 C182.53,243 301,243 301,243 C301,243 301,133.16 301,91.11 " fill="none" id="Newspack_Ads\\Providers\\GAM\\Api\\Api_Object&lt;-Newspack_Ads\\Providers\\GAM\\Api\\Targeting_Keys" style="stroke: #516F42; stroke-width: 1.0;"/><polygon fill="none" points="182.53,250,162.53,243,182.53,236,182.53,250" style="stroke: #516F42; stroke-width: 1.0;"/><!--MD5=[25341e09e328fa5356aa1e4c8adb2dfd]
link Newspack_Ads\\Bidding to Newspack_Ads\\Blocks--><!--MD5=[255dc4503b400cbf5af024752680e352]
link Newspack_Ads\\Blocks to Newspack_Ads\\Core--><!--MD5=[6161de6e070d8caa9a9244d1963a92a8]
link Newspack_Ads\\Core to Newspack_Ads\\Custom_Label--><!--MD5=[875d813cb7900472da1233837bf7b059]
link Newspack_Ads\\Custom_Label to Newspack_Ads\\Fixed_Height--><!--MD5=[c25049001ba061046839afc5f3baf51f]
link Newspack_Ads\\Bidding to Newspack_Ads\\Placements--><!--MD5=[2c5147f73a10f361830515de80f295c4]
link Newspack_Ads\\Placements to Newspack_Ads\\Providers--><!--MD5=[631558956d22dee21c91a32a4be6f817]
link Newspack_Ads\\Providers to Newspack_Ads\\Settings--><!--MD5=[e5e31b9997e8c819ec34bc1c93746524]
link Newspack_Ads\\Settings to Newspack_Ads\\Sidebar_Placements--><!--MD5=[7f731f988fcebd4b98d8caf166d52b36]
link Newspack_Ads\\Sidebar_Placements to Newspack_Ads\\Suppression--><!--MD5=[d03c9953f0610413b654b73883350381]
link Newspack_Ads\\Placements to Newspack_Ads\\Customizer--><!--MD5=[edd9c947c66dccf16ecc59a816d7023d]
link Newspack_Ads\\Customizer to Newspack_Ads\\Bidding\\Medianet--><!--MD5=[b3186b806a0460e2ab26c1719b831470]
link Newspack_Ads\\Bidding\\Medianet to Newspack_Ads\\Bidding\\OpenX--><!--MD5=[80b37351d818008de3586147eacd9075]
link Newspack_Ads\\Bidding\\OpenX to Newspack_Ads\\Bidding\\PubMatic--><!--MD5=[01f672ec737525bd11ec8cd8a6ad7e5f]
link Newspack_Ads\\Bidding\\PubMatic to Newspack_Ads\\Bidding\\Sovrn--><!--MD5=[f3da531eedc9c723820341dac7e25070]
link Newspack_Ads\\Customizer to Newspack_Ads\\Providers\\GAM_Ad_Block_Recovery--><!--MD5=[d8f14dc885187f3ebb94b3ea5976193a]
link Newspack_Ads\\Providers\\GAM_Ad_Block_Recovery to Newspack_Ads\\Providers\\GAM_Lazy_Load--><!--MD5=[62a4b7b5482a423a5968250ed7fcc56c]
link Newspack_Ads\\Providers\\GAM_Lazy_Load to Newspack_Ads\\Providers\\GAM_Model--><!--MD5=[bce2e6b24a67ecfc6664d226c06d8003]
link Newspack_Ads\\Providers\\GAM_Model to Newspack_Ads\\Providers\\GAM_Scripts--><!--MD5=[435dcd80ac7f17054099751d7c8a1edd]
link Newspack_Ads\\Integrations\\Ad_Refresh_Control to Newspack_Ads\\Integrations\\Bidding_GAM--><!--MD5=[ea19626ef13abc32757b89c7f6fe7280]
link Newspack_Ads\\Integrations\\Ad_Refresh_Control to Newspack_Ads\\Integrations\\SCAIP--><!--MD5=[d4b25fbb1b572bc2bae49931e2477acd]
@startuml
   skinparam ArrowColor #516f42
   skinparam activityBorderColor #516f42
   skinparam activityBackgroundColor #ffffff
   skinparam activityDiamondBorderColor #516f42
   skinparam activityDiamondBackgroundColor #ffffff
   skinparam shadowing false

skinparam shadowing false
skinparam linetype ortho
hide empty members
left to right direction
set namespaceSeparator \\


class \\Newspack_Ads\\Bidding {
}

class \\Newspack_Ads\\Blocks {
}

class \\Newspack_Ads\\Core {
}

class \\Newspack_Ads\\Custom_Label {
}

class \\Newspack_Ads\\Fixed_Height {
}

class \\Newspack_Ads\\Placements {
}

class \\Newspack_Ads\\Providers {
}

class \\Newspack_Ads\\Settings {
}

class \\Newspack_Ads\\Sidebar_Placements {
}

class \\Newspack_Ads\\Suppression {
}

class \\Newspack_Ads\\Widget extends \\WP_Widget {
}

class \\Newspack_Ads\\Customizer {
}

class \\Newspack_Ads\\Placement_Customize_Control extends \\WP_Customize_Control {
}

class \\Newspack_Ads\\Bidding\\Medianet {
}

class \\Newspack_Ads\\Bidding\\OpenX {
}

class \\Newspack_Ads\\Bidding\\PubMatic {
}

class \\Newspack_Ads\\Bidding\\Sovrn {
}

class \\Newspack_Ads\\Integrations\\Ad_Refresh_Control {
}

class \\Newspack_Ads\\Integrations\\Bidding_GAM {
}

class \\Newspack_Ads\\Integrations\\SCAIP {
}

class \\Newspack_Ads\\Providers\\Broadstreet_Provider extends \\Newspack_Ads\\Providers\\Provider {
}

abstract class \\Newspack_Ads\\Providers\\Provider implements \\Newspack_Ads\\Providers\\Provider_Interface {
}

class \\Newspack_Ads\\Providers\\GAM_Ad_Block_Recovery {
}

class \\Newspack_Ads\\Providers\\GAM_Lazy_Load {
}

class \\Newspack_Ads\\Providers\\GAM_Model {
}

class \\Newspack_Ads\\Providers\\GAM_Provider extends \\Newspack_Ads\\Providers\\Provider {
}

class \\Newspack_Ads\\Providers\\GAM_Scripts {
}

interface \\Newspack_Ads\\Providers\\Provider_Interface {
}

class \\Newspack_Ads\\Providers\\GAM\\Api {
}

class \\Newspack_Ads\\Providers\\GAM\\Api\\Ad_Units extends \\Newspack_Ads\\Providers\\GAM\\Api\\Api_Object {
}

class \\Newspack_Ads\\Providers\\GAM\\Api\\Advertisers extends \\Newspack_Ads\\Providers\\GAM\\Api\\Api_Object {
}

abstract class \\Newspack_Ads\\Providers\\GAM\\Api\\Api_Object {
}

class \\Newspack_Ads\\Providers\\GAM\\Api\\Creatives extends \\Newspack_Ads\\Providers\\GAM\\Api\\Api_Object {
}

class \\Newspack_Ads\\Providers\\GAM\\Api\\Line_Items extends \\Newspack_Ads\\Providers\\GAM\\Api\\Api_Object {
}

class \\Newspack_Ads\\Providers\\GAM\\Api\\Orders extends \\Newspack_Ads\\Providers\\GAM\\Api\\Api_Object {
}

class \\Newspack_Ads\\Providers\\GAM\\Api\\Targeting_Keys extends \\Newspack_Ads\\Providers\\GAM\\Api\\Api_Object {
}

@enduml

PlantUML version 1.2020.02(Sun Mar 01 10:22:07 UTC 2020)
(GPL source distribution)
Java Runtime: OpenJDK Runtime Environment
JVM: OpenJDK 64-Bit Server VM
Java Version: 11.0.21+9-post-Ubuntu-0ubuntu122.04
Operating System: Linux
Default Encoding: UTF-8
Language: en
Country: US
--></g></svg>